<?xml version="1.0" standalone="no"?><!DOCTYPE svg PUBLIC "-//W3C//DTD SVG 1.1//EN" "http://www.w3.org/Graphics/SVG/1.1/DTD/svg11.dtd"><svg t="1576244097465" class="icon" viewBox="0 0 1024 1024" version="1.1" xmlns="http://www.w3.org/2000/svg" p-id="2575" width="35" height="35" xmlns:xlink="http://www.w3.org/1999/xlink"><defs><style type="text/css"></style></defs><path d="M917.333333 490.666667h-64c-0.384 0-0.704 0.213333-1.066666 0.213333A341.269333 341.269333 0 0 0 533.12 171.733333c0-0.384 0.213333-0.682667 0.213333-1.066666V106.666667a21.333333 21.333333 0 0 0-42.666666 0v64c0 0.384 0.213333 0.704 0.213333 1.066666A341.269333 341.269333 0 0 0 171.733333 490.88c-0.362667 0-0.682667-0.213333-1.066666-0.213333H106.666667a21.333333 21.333333 0 0 0 0 42.666666h64c0.384 0 0.704-0.213333 1.066666-0.213333a341.269333 341.269333 0 0 0 319.146667 319.146667c0 0.384-0.213333 0.682667-0.213333 1.066666v64a21.333333 21.333333 0 0 0 42.666666 0v-64c0-0.384-0.213333-0.704-0.213333-1.066666a341.269333 341.269333 0 0 0 319.146667-319.146667c0.384 0 0.682667 0.213333 1.066666 0.213333h64a21.333333 21.333333 0 0 0 0-42.666666zM512 810.666667a298.666667 298.666667 0 1 1 298.666667-298.666667 299.008 299.008 0 0 1-298.666667 298.666667z" fill="#333333" p-id="2576"></path><path d="M512 341.333333a170.666667 170.666667 0 1 0 170.666667 170.666667 170.858667 170.858667 0 0 0-170.666667-170.666667z m0 298.666667a128 128 0 1 1 128-128 128.149333 128.149333 0 0 1-128 128z" fill="#333333" p-id="2577"></path></svg>